<?xml version="1.0" encoding="UTF-8" standalone="no"?>
<!-- Created with Inkscape (http://www.inkscape.org/) -->

<svg
   xmlns:dc="http://purl.org/dc/elements/1.1/"
   xmlns:cc="http://creativecommons.org/ns#"
   xmlns:rdf="http://www.w3.org/1999/02/22-rdf-syntax-ns#"
   xmlns:svg="http://www.w3.org/2000/svg"
   xmlns="http://www.w3.org/2000/svg"
   xmlns:sodipodi="http://sodipodi.sourceforge.net/DTD/sodipodi-0.dtd"
   xmlns:inkscape="http://www.inkscape.org/namespaces/inkscape"
   width="800"
   height="800"
   id="svg3038"
   version="1.1"
   inkscape:version="0.48.4 r9939"
   sodipodi:docname="penRoundSmall.svg">
  <defs
     id="defs3040">
    <filter
       inkscape:collect="always"
       id="filter3815"
       color-interpolation-filters="sRGB">
      <feGaussianBlur
         inkscape:collect="always"
         stdDeviation="3.1039371"
         id="feGaussianBlur3817" />
    </filter>
  </defs>
  <sodipodi:namedview
     id="base"
     pagecolor="#ffffff"
     bordercolor="#666666"
     borderopacity="1.0"
     inkscape:pageopacity="0.0"
     inkscape:pageshadow="2"
     inkscape:zoom="0.6175"
     inkscape:cx="207.28745"
     inkscape:cy="400"
     inkscape:document-units="px"
     inkscape:current-layer="layer1"
     showgrid="false"
     inkscape:window-width="1366"
     inkscape:window-height="701"
     inkscape:window-x="-2"
     inkscape:window-y="-3"
     inkscape:window-maximized="1" />
  <metadata
     id="metadata3043">
    <rdf:RDF>
      <cc:Work
         rdf:about="">
        <dc:format>image/svg+xml</dc:format>
        <dc:type
           rdf:resource="http://purl.org/dc/dcmitype/StillImage" />
        <dc:title></dc:title>
      </cc:Work>
    </rdf:RDF>
  </metadata>
  <g
     inkscape:label="Layer 1"
     inkscape:groupmode="layer"
     id="layer1"
     transform="translate(0,-252.36218)">
    <path
       style="fill:#999999;fill-opacity:1;stroke:none;filter:url(#filter3815)"
       d="M 180.53125 102.75 C 138.5473 102.75 104.75 136.5473 104.75 178.53125 L 104.75 605.46875 C 104.75 647.4527 138.5473 681.25 180.53125 681.25 L 607.46875 681.25 C 649.4527 681.25 683.25 647.4527 683.25 605.46875 L 683.25 178.53125 C 683.25 136.5473 649.4527 102.75 607.46875 102.75 L 180.53125 102.75 z M 394 235.71875 C 480.30846 235.71875 550.28125 305.69154 550.28125 392 C 550.28125 478.30846 480.30846 548.28125 394 548.28125 C 307.69154 548.28125 237.71875 478.30846 237.71875 392 C 237.71875 305.69154 307.69154 235.71875 394 235.71875 z "
       transform="translate(0,252.36218)"
       id="rect3801" />
  </g>
</svg>
