<?xml version="1.0" encoding="UTF-8" standalone="no"?>
<!-- Created with Inkscape (http://www.inkscape.org/) -->

<svg
   xmlns:dc="http://purl.org/dc/elements/1.1/"
   xmlns:cc="http://creativecommons.org/ns#"
   xmlns:rdf="http://www.w3.org/1999/02/22-rdf-syntax-ns#"
   xmlns:svg="http://www.w3.org/2000/svg"
   xmlns="http://www.w3.org/2000/svg"
   xmlns:sodipodi="http://sodipodi.sourceforge.net/DTD/sodipodi-0.dtd"
   xmlns:inkscape="http://www.inkscape.org/namespaces/inkscape"
   width="800"
   height="800"
   id="svg3213"
   version="1.1"
   inkscape:version="0.48.4 r9939"
   sodipodi:docname="New document 6">
  <defs
     id="defs3215">
    <inkscape:path-effect
       effect="skeletal"
       id="path-effect3225"
       is_visible="true"
       pattern="M 0,5 C 0,2.24 2.24,0 5,0 7.76,0 10,2.24 10,5 10,7.76 7.76,10 5,10 2.24,10 0,7.76 0,5 z"
       copytype="single_stretched"
       prop_scale="7"
       scale_y_rel="false"
       spacing="0"
       normal_offset="0"
       tang_offset="0"
       prop_units="false"
       vertical_pattern="false"
       fuse_tolerance="0" />
    <inkscape:path-effect
       effect="spiro"
       id="path-effect3223"
       is_visible="true" />
    <filter
       inkscape:collect="always"
       id="filter3861"
       color-interpolation-filters="sRGB">
      <feGaussianBlur
         inkscape:collect="always"
         stdDeviation="16.937007"
         id="feGaussianBlur3863" />
    </filter>
    <filter
       inkscape:collect="always"
       id="filter3795"
       color-interpolation-filters="sRGB">
      <feGaussianBlur
         inkscape:collect="always"
         stdDeviation="9.3118112"
         id="feGaussianBlur3797" />
    </filter>
    <filter
       inkscape:collect="always"
       id="filter3815"
       color-interpolation-filters="sRGB">
      <feGaussianBlur
         inkscape:collect="always"
         stdDeviation="3.1039371"
         id="feGaussianBlur3817" />
    </filter>
  </defs>
  <sodipodi:namedview
     id="base"
     pagecolor="#ffffff"
     bordercolor="#666666"
     borderopacity="1.0"
     inkscape:pageopacity="0.0"
     inkscape:pageshadow="2"
     inkscape:zoom="0.49497475"
     inkscape:cx="513.98345"
     inkscape:cy="416.76628"
     inkscape:document-units="px"
     inkscape:current-layer="layer1"
     showgrid="false"
     inkscape:window-width="1366"
     inkscape:window-height="701"
     inkscape:window-x="-2"
     inkscape:window-y="-3"
     inkscape:window-maximized="1" />
  <metadata
     id="metadata3218">
    <rdf:RDF>
      <cc:Work
         rdf:about="">
        <dc:format>image/svg+xml</dc:format>
        <dc:type
           rdf:resource="http://purl.org/dc/dcmitype/StillImage" />
        <dc:title></dc:title>
      </cc:Work>
    </rdf:RDF>
  </metadata>
  <g
     inkscape:label="Layer 1"
     inkscape:groupmode="layer"
     id="layer1"
     transform="translate(0,-252.36218)">
    <g
       id="g4059"
       transform="matrix(0.94445213,0,0,0.94445213,12.964848,21.016037)">
      <path
         sodipodi:nodetypes="ssssscsscscscscsccscscsccscscscaaaaaaaaaaaascscscsccscscsccscsccscsscssss"
         inkscape:connector-curvature="0"
         id="path3221"
         d="m 298.46047,609.20093 c -0.65322,1.03151 -2.57621,1.2737 -5.70009,0.53396 -3.12388,-0.73973 -7.45356,-2.47066 -12.63617,-5.61047 -5.18261,-3.13981 -11.22489,-7.70194 -17.40027,-14.1561 -3.08768,-3.22709 -6.20215,-6.92673 -9.20939,-11.1455 -3.00724,-4.21876 -5.90744,-8.95713 -8.53394,-14.24441 -4.65952,-9.41302 -8.40932,-20.48956 -10.2861,-32.94239 -0.93839,-6.22642 -1.40636,-12.79033 -1.27243,-19.61131 0.13394,-6.82097 0.86989,-13.89921 2.34487,-21.12018 1.71888,-8.24691 4.36218,-16.55543 7.97249,-24.71711 3.61029,-8.16169 8.18793,-16.17657 13.72514,-23.79294 4.99083,-6.89239 10.72468,-13.49619 17.17779,-19.64837 6.4531,-6.15218 13.62555,-11.85269 21.46274,-16.92193 14.02489,-8.95288 29.73456,-15.94588 46.55157,-20.62244 16.81702,-4.67657 34.74041,-7.03548 52.93301,-6.85065 13.19559,0.0651 26.59501,1.36737 39.95896,3.96301 13.36394,2.59564 26.69211,6.48473 39.71155,11.69169 24.69042,9.84339 48.31833,24.45983 68.76955,43.67493 3.43,3.1786 6.77715,6.51501 10.01825,10.00766 14.78487,15.93231 26.92116,34.6847 34.7842,55.55197 5.05838,13.3896 7.85544,27.58078 8.22933,41.8118 0.37392,14.23101 -1.67537,28.50093 -6.22434,42.14041 -5.55785,14.92515 -13.38228,27.76715 -22.32488,38.76231 -8.9426,10.99517 -19.00232,20.14415 -29.21797,27.70579 l -3e-5,2e-5 c -10.97158,8.37195 -21.8036,15.34303 -32.04883,21.71755 -10.24524,6.37452 -19.90409,12.15311 -28.68416,17.94823 -7.83491,5.20166 -15.18167,10.51591 -21.943,15.97174 -6.76133,5.45582 -12.93752,11.05322 -18.48732,16.79242 -6.41092,6.6537 -12.04891,13.45357 -16.7978,20.26941 -4.7489,6.81583 -8.61027,13.64807 -11.60872,20.3825 -2.58271,5.7005 -4.47343,11.14112 -6.1222,16.90204 -1.49274,5.21573 -2.55475,10.55784 -3.39246,15.9179 -0.73866,4.72623 -1.15198,9.50369 -1.43394,14.27898 -0.24029,4.06951 -0.24055,8.1513 -0.21851,12.22784 0.0313,5.81299 0.66622,11.62135 0.50004,17.43205 -0.0472,1.65298 0.62468,3.66524 -0.42543,4.94269 -0.78836,0.95902 -2.34204,0.92287 -3.57876,1.03136 -4.01628,0.35236 -8.89251,1.26015 -12.02777,-1.27459 -1.88261,-1.52202 -1.75647,-4.53402 -2.26125,-6.9017 -0.82425,-3.86621 -0.85289,-7.8603 -1.22507,-11.79583 -0.43554,-4.6056 -0.66506,-9.23077 -1.17952,-13.82823 -0.63145,-5.64293 -1.98684,-11.20584 -2.33961,-16.87303 -0.41256,-6.62756 -0.38816,-12.8236 0.26782,-19.91938 0.65599,-7.09576 1.94684,-14.61827 4.09413,-22.4195 2.55904,-9.1294 6.20921,-18.49665 11.01676,-27.82387 4.80756,-9.32722 10.77424,-18.61414 17.82478,-27.53464 6.02451,-7.65167 12.76001,-15.11028 20.12788,-22.29194 7.36787,-7.18165 15.36829,-14.08606 23.86311,-20.65392 9.39613,-7.30523 19.1346,-14.13493 28.67445,-20.91574 9.53984,-6.78081 18.88032,-13.51252 27.34443,-20.82737 l 2e-5,-3e-5 c 7.53303,-6.76353 14.73927,-13.90168 20.66671,-21.44024 5.92743,-7.53856 10.57496,-15.47715 12.81003,-23.86821 2.45636,-7.32031 3.30538,-15.4926 2.75879,-23.96304 -0.54659,-8.47044 -2.48825,-17.23838 -5.56385,-25.64478 -4.92379,-13.39657 -13.62866,-26.18513 -24.53471,-38.00132 -2.3908,-2.59033 -4.87141,-5.11798 -7.41998,-7.58064 -15.3766,-14.59132 -33.41592,-26.02072 -52.30905,-34.03819 -9.97286,-4.21546 -20.20057,-7.49008 -30.45761,-9.81569 -10.25702,-2.32562 -20.54317,-3.70214 -30.66697,-4.14177 -13.96682,-0.51127 -27.66144,0.56962 -40.39245,3.26212 -12.73102,2.69249 -24.4981,6.99714 -34.86226,12.83213 -11.51482,6.34721 -21.51923,14.54162 -29.48496,23.67863 -4.36555,5.03108 -8.1587,10.33817 -11.30442,15.76353 -3.14572,5.42535 -5.64423,10.96919 -7.47189,16.50962 -1.63142,4.85533 -2.78706,9.77118 -3.53583,14.62981 -0.74878,4.85862 -1.09068,9.66021 -1.0945,14.31882 -0.007,9.31723 1.33665,18.03828 3.48464,25.80608 2.39896,8.73755 5.82922,16.37476 9.36813,22.8357 3.5389,6.46093 7.19303,11.76018 10.31569,16.06945 3.12266,4.30926 9.13337,6.50512 10.74638,9.06007 1.61301,2.55494 -1.17158,5.48173 -1.8248,6.51323 z"
         style="fill:#000000;fill-rule:evenodd;stroke:none" />
      <path
         sodipodi:nodetypes="csssssssc"
         inkscape:connector-curvature="0"
         id="path3997"
         d="m 389.75142,898.61433 c -3.41325,-2.13365 -2.11833,-7.09457 0.40951,-9.32412 4.67544,-4.12373 11.83049,-1.93746 15.16015,2.76847 4.96226,7.01336 1.77435,16.6693 -5.1439,21.0201 -9.30696,5.85302 -21.55257,1.62 -26.89681,-7.52927 -6.76823,-11.58713 -1.47027,-26.46148 9.92174,-32.7865 13.86288,-7.69689 30.35244,-0.0465 36.18683,14.28402 6.13385,15.06609 0.34502,31.14156 -10.25795,37.12462 -8.62768,4.86843 -18.5384,3.80955 -20.70257,3.53448"
         style="fill:none;stroke:#000000;stroke-width:10;stroke-linecap:round;stroke-linejoin:miter;stroke-miterlimit:4;stroke-opacity:1;stroke-dasharray:none;stroke-dashoffset:0" />
    </g>
  </g>
</svg>
