<?xml version="1.0" encoding="UTF-8" standalone="no"?>
<svg
   xmlns:dc="http://purl.org/dc/elements/1.1/"
   xmlns:cc="http://creativecommons.org/ns#"
   xmlns:rdf="http://www.w3.org/1999/02/22-rdf-syntax-ns#"
   xmlns:svg="http://www.w3.org/2000/svg"
   xmlns="http://www.w3.org/2000/svg"
   xmlns:sodipodi="http://sodipodi.sourceforge.net/DTD/sodipodi-0.dtd"
   xmlns:inkscape="http://www.inkscape.org/namespaces/inkscape"
   enable-background="new 0 0 48 48"
   id="Layer_1"
   version="1.1"
   viewBox="0 0 800 800"
   xml:space="preserve"
   inkscape:version="0.48.4 r9939"
   width="100%"
   height="100%"
   sodipodi:docname="Twitter_circle.svg"><metadata
     id="metadata15"><rdf:RDF><cc:Work
         rdf:about=""><dc:format>image/svg+xml</dc:format><dc:type
           rdf:resource="http://purl.org/dc/dcmitype/StillImage" /></cc:Work></rdf:RDF></metadata><defs
     id="defs13"><filter
       inkscape:collect="always"
       id="filter3861"
       color-interpolation-filters="sRGB"><feGaussianBlur
         inkscape:collect="always"
         stdDeviation="16.937007"
         id="feGaussianBlur3863" /></filter><filter
       inkscape:collect="always"
       id="filter3795"
       color-interpolation-filters="sRGB"><feGaussianBlur
         inkscape:collect="always"
         stdDeviation="9.3118112"
         id="feGaussianBlur3797" /></filter><filter
       inkscape:collect="always"
       id="filter3815"
       color-interpolation-filters="sRGB"><feGaussianBlur
         inkscape:collect="always"
         stdDeviation="3.1039371"
         id="feGaussianBlur3817" /></filter></defs><sodipodi:namedview
     pagecolor="#ffffff"
     bordercolor="#666666"
     borderopacity="1"
     objecttolerance="10"
     gridtolerance="10"
     guidetolerance="10"
     inkscape:pageopacity="0"
     inkscape:pageshadow="2"
     inkscape:window-width="1440"
     inkscape:window-height="880"
     id="namedview11"
     showgrid="false"
     inkscape:zoom="0.84125"
     inkscape:cx="258.54383"
     inkscape:cy="400"
     inkscape:window-x="1364"
     inkscape:window-y="-3"
     inkscape:window-maximized="1"
     inkscape:current-layer="Layer_1" /><g
     id="g3025"
     transform="matrix(11.2526,0,0,11.2526,122.43684,-8338.7815)"><circle
       transform="translate(0,752)"
       style="fill:#1cb7eb"
       sodipodi:ry="24"
       sodipodi:rx="24"
       sodipodi:cy="24"
       sodipodi:cx="24"
       id="circle3"
       r="24"
       cy="24"
       cx="24"
       d="M 48,24 C 48,37.254834 37.254834,48 24,48 10.745166,48 0,37.254834 0,24 0,10.745166 10.745166,0 24,0 37.254834,0 48,10.745166 48,24 z" /><g
       transform="translate(0,752)"
       id="g5"><g
         id="g7"><path
           style="fill:#ffffff"
           inkscape:connector-curvature="0"
           id="path9"
           d="m 36.8,15.4 c -0.9,0.5 -2,0.8 -3,0.9 1.1,-0.7 1.9,-1.8 2.3,-3.1 -1,0.6 -2.1,1.1 -3.4,1.4 -1,-1.1 -2.3,-1.8 -3.8,-1.8 -2.9,0 -5.3,2.5 -5.3,5.7 0,0.4 0,0.9 0.1,1.3 -4.4,-0.2 -8.3,-2.5 -10.9,-5.9 -0.5,0.8 -0.7,1.8 -0.7,2.9 0,2 0.9,3.7 2.3,4.7 -0.9,0 -1.7,-0.3 -2.4,-0.7 0,0 0,0.1 0,0.1 0,2.7 1.8,5 4.2,5.6 -0.4,0.1 -0.9,0.2 -1.4,0.2 -0.3,0 -0.7,0 -1,-0.1 0.7,2.3 2.6,3.9 4.9,3.9 -1.8,1.5 -4.1,2.4 -6.5,2.4 -0.4,0 -0.8,0 -1.3,-0.1 2.3,1.6 5.1,2.6 8.1,2.6 9.7,0 15,-8.6 15,-16.1 0,-0.2 0,-0.5 0,-0.7 1.2,-1 2.1,-2 2.8,-3.2 z" /></g></g></g></svg>