<?xml version="1.0" encoding="UTF-8" standalone="no"?>
<!-- Created with Inkscape (http://www.inkscape.org/) -->

<svg
   xmlns:dc="http://purl.org/dc/elements/1.1/"
   xmlns:cc="http://creativecommons.org/ns#"
   xmlns:rdf="http://www.w3.org/1999/02/22-rdf-syntax-ns#"
   xmlns:svg="http://www.w3.org/2000/svg"
   xmlns="http://www.w3.org/2000/svg"
   xmlns:sodipodi="http://sodipodi.sourceforge.net/DTD/sodipodi-0.dtd"
   xmlns:inkscape="http://www.inkscape.org/namespaces/inkscape"
   width="780.91559"
   height="643.50208"
   id="svg3819"
   version="1.1"
   inkscape:version="0.48.4 r9939"
   sodipodi:docname="gallery.svg"
   inkscape:export-filename="/home/hendrik/web/Whiteboard/images/gallery.png"
   inkscape:export-xdpi="90"
   inkscape:export-ydpi="90">
  <defs
     id="defs3821">
    <inkscape:path-effect
       effect="spiro"
       id="path-effect4475"
       is_visible="true" />
  </defs>
  <sodipodi:namedview
     id="base"
     pagecolor="#ffffff"
     bordercolor="#666666"
     borderopacity="1.0"
     inkscape:pageopacity="0.0"
     inkscape:pageshadow="2"
     inkscape:zoom="0.494"
     inkscape:cx="249.817"
     inkscape:cy="343.94545"
     inkscape:document-units="px"
     inkscape:current-layer="layer1"
     showgrid="false"
     fit-margin-top="0"
     fit-margin-left="0"
     fit-margin-right="0"
     fit-margin-bottom="0"
     inkscape:window-width="1366"
     inkscape:window-height="701"
     inkscape:window-x="-2"
     inkscape:window-y="-3"
     inkscape:window-maximized="1" />
  <metadata
     id="metadata3824">
    <rdf:RDF>
      <cc:Work
         rdf:about="">
        <dc:format>image/svg+xml</dc:format>
        <dc:type
           rdf:resource="http://purl.org/dc/dcmitype/StillImage" />
        <dc:title></dc:title>
      </cc:Work>
    </rdf:RDF>
  </metadata>
  <g
     inkscape:label="Layer 1"
     inkscape:groupmode="layer"
     id="layer1"
     transform="translate(236.73197,-508.17859)">
    <g
       id="g4507"
       transform="matrix(0.91090188,0.41262303,-0.41262303,0.91090188,352.42147,-33.10311)">
      <rect
         style="fill:#cccccc;fill-opacity:1;stroke:none"
         id="rect4392"
         width="427.12552"
         height="427.12552"
         x="46.005482"
         y="600.35974"
         ry="42.3825" />
      <path
         inkscape:connector-curvature="0"
         style="fill:#1a1a1a;fill-opacity:1;stroke:none"
         d="m 65.831526,568.71815 c -24.223613,0 -43.75,19.52639 -43.75,43.75 l 0,374.0625 c 0,24.22365 19.526387,43.75005 43.75,43.75005 l 374.062504,0 c 24.22361,0 43.75,-19.5264 43.75,-43.75005 l 0,-374.0625 c 0,-24.22361 -19.52639,-43.75 -43.75,-43.75 l -374.062504,0 z m 30.78125,35.8125 312.500004,0 c 21.43406,0 38.71875,17.28469 38.71875,38.71875 l 0,312.5 c 0,21.43406 -17.28469,38.71875 -38.71875,38.71875 l -312.500004,0 c -21.434063,0 -38.71875,-17.28469 -38.71875,-38.71875 l 0,-312.5 c 0,-21.43406 17.284687,-38.71875 38.71875,-38.71875 z"
         id="path4408" />
      <path
         inkscape:connector-curvature="0"
         id="path4429"
         d="m 134.97621,713.08056 70.62129,0"
         style="fill:#333333;stroke:#4d4d4d;stroke-width:15.75760078;stroke-linecap:round;stroke-linejoin:miter;stroke-miterlimit:4;stroke-opacity:1;stroke-dasharray:none;stroke-dashoffset:0" />
      <path
         style="fill:#333333;stroke:#4d4d4d;stroke-width:10;stroke-linecap:round;stroke-linejoin:miter;stroke-miterlimit:2;stroke-opacity:1;stroke-dasharray:none;stroke-dashoffset:0"
         d="m 92.827194,636.47296 221.217546,0"
         id="path4443"
         inkscape:connector-curvature="0" />
      <path
         style="fill:#333333;stroke:#4d4d4d;stroke-width:9.09205055;stroke-linecap:round;stroke-linejoin:miter;stroke-miterlimit:4;stroke-opacity:1;stroke-dasharray:none;stroke-dashoffset:0"
         d="m 133.31445,730.79311 55.72619,0"
         id="path4445"
         inkscape:connector-curvature="0" />
      <path
         inkscape:connector-curvature="0"
         id="path4447"
         d="m 133.31445,744.96315 55.72619,0"
         style="fill:#333333;stroke:#4d4d4d;stroke-width:9.09205055;stroke-linecap:round;stroke-linejoin:miter;stroke-miterlimit:4;stroke-opacity:1;stroke-dasharray:none;stroke-dashoffset:0" />
      <path
         style="fill:#333333;stroke:#4d4d4d;stroke-width:15.75760078;stroke-linecap:round;stroke-linejoin:miter;stroke-miterlimit:4;stroke-opacity:1;stroke-dasharray:none;stroke-dashoffset:0"
         d="m 319.18674,757.61497 70.62129,0"
         id="path4451"
         inkscape:connector-curvature="0" />
      <path
         inkscape:connector-curvature="0"
         id="path4453"
         d="m 317.52498,775.32752 55.72619,0"
         style="fill:#333333;stroke:#4d4d4d;stroke-width:9.09205055;stroke-linecap:round;stroke-linejoin:miter;stroke-miterlimit:4;stroke-opacity:1;stroke-dasharray:none;stroke-dashoffset:0" />
      <path
         style="fill:#333333;stroke:#4d4d4d;stroke-width:9.09205055;stroke-linecap:round;stroke-linejoin:miter;stroke-miterlimit:4;stroke-opacity:1;stroke-dasharray:none;stroke-dashoffset:0"
         d="m 317.52498,789.49756 55.72619,0"
         id="path4455"
         inkscape:connector-curvature="0" />
      <path
         inkscape:connector-curvature="0"
         id="path4459"
         d="m 156.23128,877.04817 70.62129,0"
         style="fill:#333333;stroke:#4d4d4d;stroke-width:15.75760078;stroke-linecap:round;stroke-linejoin:miter;stroke-miterlimit:4;stroke-opacity:1;stroke-dasharray:none;stroke-dashoffset:0" />
      <path
         style="fill:#333333;stroke:#4d4d4d;stroke-width:9.09205055;stroke-linecap:round;stroke-linejoin:miter;stroke-miterlimit:4;stroke-opacity:1;stroke-dasharray:none;stroke-dashoffset:0"
         d="m 154.56952,894.76072 55.72619,0"
         id="path4461"
         inkscape:connector-curvature="0" />
      <path
         inkscape:connector-curvature="0"
         id="path4463"
         d="m 154.56952,908.93076 55.72619,0"
         style="fill:#333333;stroke:#4d4d4d;stroke-width:9.09205055;stroke-linecap:round;stroke-linejoin:miter;stroke-miterlimit:4;stroke-opacity:1;stroke-dasharray:none;stroke-dashoffset:0" />
      <path
         style="fill:#333333;stroke:#4d4d4d;stroke-width:15.75760078;stroke-linecap:round;stroke-linejoin:miter;stroke-miterlimit:4;stroke-opacity:1;stroke-dasharray:none;stroke-dashoffset:0"
         d="m 327.28391,905.38825 70.62129,0"
         id="path4467"
         inkscape:connector-curvature="0" />
      <path
         inkscape:connector-curvature="0"
         id="path4469"
         d="m 325.62215,923.1008 55.72619,0"
         style="fill:#333333;stroke:#4d4d4d;stroke-width:9.09205055;stroke-linecap:round;stroke-linejoin:miter;stroke-miterlimit:4;stroke-opacity:1;stroke-dasharray:none;stroke-dashoffset:0" />
      <path
         style="fill:#333333;stroke:#4d4d4d;stroke-width:9.09205055;stroke-linecap:round;stroke-linejoin:miter;stroke-miterlimit:4;stroke-opacity:1;stroke-dasharray:none;stroke-dashoffset:0"
         d="m 325.62215,937.27084 55.72619,0"
         id="path4471"
         inkscape:connector-curvature="0" />
      <path
         transform="translate(0,552.36218)"
         inkscape:connector-curvature="0"
         id="path4493"
         d="m 295.54656,223.17814 -11.63968,5.5668"
         style="fill:none;stroke:#000000;stroke-width:0;stroke-linecap:butt;stroke-linejoin:miter;stroke-miterlimit:4;stroke-opacity:1;stroke-dasharray:none" />
      <path
         sodipodi:nodetypes="cssc"
         transform="translate(0,552.36218)"
         inkscape:connector-curvature="0"
         id="path4501"
         d="m 225.20243,171.5587 c 2.53036,0.50608 19.39099,8.11215 25.30364,16.19434 5.77429,7.89306 1.27689,20.87191 7.5911,28.34008 8.38286,9.91488 35.4251,16.19433 35.4251,16.19433"
         style="fill:none;stroke:#000000;stroke-width:5;stroke-linecap:butt;stroke-linejoin:miter;stroke-miterlimit:4;stroke-opacity:1;stroke-dasharray:none" />
      <path
         sodipodi:nodetypes="cssc"
         transform="translate(0,552.36218)"
         inkscape:connector-curvature="0"
         id="path4503"
         d="m 173.583,212.04453 c 0,0 -7.19562,18.81117 -4.55466,27.83401 3.12073,10.66197 10.4267,16.12661 16.8995,25.15542 8.16461,11.3887 17.51346,28.48831 17.51346,28.48831"
         style="fill:none;stroke:#000000;stroke-width:5;stroke-linecap:butt;stroke-linejoin:miter;stroke-miterlimit:4;stroke-opacity:1;stroke-dasharray:none" />
      <path
         sodipodi:nodetypes="cssc"
         transform="translate(0,552.36218)"
         inkscape:connector-curvature="0"
         id="path4505"
         d="m 246.91482,337.53721 c 0,0 5.44062,17.69195 12.88251,21.47085 4.69897,2.38608 10.4909,-1.83762 15.74529,-1.43139 9.80702,0.75821 28.62781,7.15695 28.62781,7.15695"
         style="fill:none;stroke:#000000;stroke-width:5;stroke-linecap:butt;stroke-linejoin:miter;stroke-miterlimit:4;stroke-opacity:1;stroke-dasharray:none" />
      <rect
         ry="12.766981"
         y="852.2793"
         x="138.19377"
         height="73.410133"
         width="105.36211"
         id="rect4457"
         style="fill:none;stroke:#008000;stroke-width:11.99216366;stroke-miterlimit:4;stroke-dasharray:none" />
      <rect
         style="fill:none;stroke:#800080;stroke-width:11.99216366;stroke-miterlimit:4;stroke-dasharray:none"
         id="rect4465"
         width="105.36211"
         height="73.410133"
         x="309.2464"
         y="880.61938"
         ry="12.766981" />
      <rect
         ry="12.766981"
         y="688.31165"
         x="116.93869"
         height="73.410133"
         width="105.36211"
         id="rect4419"
         style="fill:none;stroke:#ff0000;stroke-width:11.99216366;stroke-miterlimit:4;stroke-dasharray:none" />
      <rect
         style="fill:none;stroke:#000080;stroke-width:11.99216366;stroke-miterlimit:4;stroke-dasharray:none"
         id="rect4449"
         width="105.36211"
         height="73.410133"
         x="301.14923"
         y="732.84607"
         ry="12.766981" />
      <path
         sodipodi:nodetypes="ccc"
         inkscape:connector-curvature="0"
         id="path4495"
         d="m 274.52778,763.12776 c 4.09265,9.61762 11.8488,13.16872 20.53678,21.25768 -10.22786,0.50326 -22.80986,-0.0387 -27.90374,4.87079"
         style="fill:none;stroke:#000000;stroke-width:5;stroke-linecap:round;stroke-linejoin:miter;stroke-miterlimit:4;stroke-opacity:1;stroke-dasharray:none" />
      <path
         style="fill:none;stroke:#000000;stroke-width:5;stroke-linecap:round;stroke-linejoin:miter;stroke-miterlimit:4;stroke-opacity:1;stroke-dasharray:none"
         d="m 203.76897,820.03456 c -2.0766,7.77306 -1.45271,16.61437 0.61817,26.12 -7.70739,-5.50131 -16.57859,-12.92765 -22.86576,-13.02393"
         id="path4497"
         inkscape:connector-curvature="0"
         sodipodi:nodetypes="ccc" />
      <path
         sodipodi:nodetypes="ccc"
         inkscape:connector-curvature="0"
         id="path4499"
         d="m 288.69469,899.34786 c 4.65829,5.64428 8.45528,13.87567 16.25376,17.49705 -7.48073,2.53626 -16.16446,0.93259 -19.10022,5.3553"
         style="fill:none;stroke:#000000;stroke-width:5;stroke-linecap:round;stroke-linejoin:miter;stroke-miterlimit:4;stroke-opacity:1;stroke-dasharray:none" />
    </g>
    <g
       id="g4379"
       transform="matrix(0.9617412,-0.27395961,0.27395961,0.9617412,-422.09589,173.61961)">
      <rect
         ry="42.3825"
         y="585.00391"
         x="34.033398"
         height="427.12552"
         width="427.12552"
         id="rect3827"
         style="fill:#008080;fill-opacity:1;stroke:none" />
      <path
         sodipodi:nodetypes="csssscccccc"
         inkscape:connector-curvature="0"
         id="path4337"
         d="m 32.768216,908.38445 c 0,0 42.110033,-76.57976 77.176104,-77.42915 25.529,-0.61837 30.13286,52.89274 55.66802,52.63158 62.97968,-0.64413 73.2678,-136.93725 136.1336,-133.09717 41.7059,2.54755 36.19396,96.29737 77.93523,98.17814 39.09663,1.76161 84.55013,-78.57899 84.55013,-78.57899 l 3.00048,218.25511 -31.37652,31.37653 -387.904858,-3.5425 -13.917004,-35.42513 z"
         style="fill:#008000;stroke:none" />
      <path
         transform="translate(-13.363796,580.35367)"
         d="m 200.40486,149.79758 c 0,31.86258 -25.82972,57.6923 -57.69231,57.6923 -31.86258,0 -57.692302,-25.82972 -57.692302,-57.6923 0,-31.86258 25.829722,-57.69231 57.692302,-57.69231 31.86259,0 57.69231,25.82973 57.69231,57.69231 z"
         sodipodi:ry="57.692307"
         sodipodi:rx="57.692307"
         sodipodi:cy="149.79758"
         sodipodi:cx="142.71255"
         id="path4339"
         style="fill:#ffcc00;fill-opacity:1;stroke:none"
         sodipodi:type="arc" />
      <g
         transform="translate(-10.501015,-2.7834011)"
         id="g4351">
        <path
           sodipodi:type="arc"
           style="fill:#f2f2f2;fill-opacity:1;stroke:none"
           id="path4341"
           sodipodi:cx="266.19434"
           sodipodi:cy="92.105263"
           sodipodi:rx="46.558704"
           sodipodi:ry="46.558704"
           d="m 312.75304,92.105263 c 0,25.713667 -20.84504,46.558707 -46.5587,46.558707 -25.71367,0 -46.55871,-20.84504 -46.55871,-46.558707 0,-25.713663 20.84504,-46.558705 46.55871,-46.558705 25.71366,0 46.5587,20.845042 46.5587,46.558705 z"
           transform="translate(21.225266,589.81157)" />
        <path
           transform="matrix(0.80434783,0,0,0.80434783,196.86142,616.94148)"
           d="m 312.75304,92.105263 c 0,25.713667 -20.84504,46.558707 -46.5587,46.558707 -25.71367,0 -46.55871,-20.84504 -46.55871,-46.558707 0,-25.713663 20.84504,-46.558705 46.55871,-46.558705 25.71366,0 46.5587,20.845042 46.5587,46.558705 z"
           sodipodi:ry="46.558704"
           sodipodi:rx="46.558704"
           sodipodi:cy="92.105263"
           sodipodi:cx="266.19434"
           id="path4343"
           style="fill:#f2f2f2;fill-opacity:1;stroke:none"
           sodipodi:type="arc" />
        <path
           sodipodi:type="arc"
           style="fill:#f2f2f2;fill-opacity:1;stroke:none"
           id="path4345"
           sodipodi:cx="266.19434"
           sodipodi:cy="92.105263"
           sodipodi:rx="46.558704"
           sodipodi:ry="46.558704"
           d="m 312.75304,92.105263 c 0,25.713667 -20.84504,46.558707 -46.5587,46.558707 -25.71367,0 -46.55871,-20.84504 -46.55871,-46.558707 0,-25.713663 20.84504,-46.558705 46.55871,-46.558705 25.71366,0 46.5587,20.845042 46.5587,46.558705 z"
           transform="matrix(1.2608695,0,0,1.2173913,13.524154,559.66723)" />
        <rect
           style="fill:#ffffff;fill-opacity:1;stroke:none"
           id="rect4349"
           width="147.40491"
           height="28.34008"
           x="276.65439"
           y="700.13544"
           ry="14.17004" />
      </g>
      <path
         id="rect4347"
         transform="translate(0,552.36218)"
         d="m 62.96875,19.21875 c -24.223613,0 -43.75,19.526387 -43.75,43.75 l 0,374.0625 c 0,24.22361 19.526387,43.75 43.75,43.75 l 374.0625,0 c 24.22361,0 43.75,-19.52639 43.75,-43.75 l 0,-374.0625 c 0,-24.223613 -19.52639,-43.75 -43.75,-43.75 l -374.0625,0 z m 30.78125,35.8125 312.5,0 c 21.43406,0 38.71875,17.284687 38.71875,38.71875 l 0,312.5 c 0,21.43406 -17.28469,38.71875 -38.71875,38.71875 l -312.5,0 c -21.434063,0 -38.71875,-17.28469 -38.71875,-38.71875 l 0,-312.5 c 0,-21.434063 17.284687,-38.71875 38.71875,-38.71875 z"
         style="fill:#1a1a1a;fill-opacity:1;stroke:none"
         inkscape:connector-curvature="0" />
    </g>
  </g>
</svg>
