<?xml version="1.0" encoding="UTF-8" standalone="no"?>
<!-- Created with Inkscape (http://www.inkscape.org/) -->

<svg
   xmlns:dc="http://purl.org/dc/elements/1.1/"
   xmlns:cc="http://creativecommons.org/ns#"
   xmlns:rdf="http://www.w3.org/1999/02/22-rdf-syntax-ns#"
   xmlns:svg="http://www.w3.org/2000/svg"
   xmlns="http://www.w3.org/2000/svg"
   xmlns:sodipodi="http://sodipodi.sourceforge.net/DTD/sodipodi-0.dtd"
   xmlns:inkscape="http://www.inkscape.org/namespaces/inkscape"
   width="479.73279"
   height="345.84811"
   id="svg2"
   version="1.1"
   inkscape:version="0.48.4 r9939"
   sodipodi:docname="manual.svg"
   inkscape:export-filename="/home/hendrik/web/Whiteboard/images/manual.png"
   inkscape:export-xdpi="90"
   inkscape:export-ydpi="90">
  <defs
     id="defs4" />
  <sodipodi:namedview
     id="base"
     pagecolor="#ffffff"
     bordercolor="#666666"
     borderopacity="1.0"
     inkscape:pageopacity="0.0"
     inkscape:pageshadow="2"
     inkscape:zoom="0.988"
     inkscape:cx="105.05977"
     inkscape:cy="189.2982"
     inkscape:document-units="px"
     inkscape:current-layer="layer1"
     showgrid="false"
     inkscape:window-width="1366"
     inkscape:window-height="701"
     inkscape:window-x="-2"
     inkscape:window-y="-3"
     inkscape:window-maximized="1"
     fit-margin-top="0"
     fit-margin-left="0"
     fit-margin-right="0"
     fit-margin-bottom="0" />
  <metadata
     id="metadata7">
    <rdf:RDF>
      <cc:Work
         rdf:about="">
        <dc:format>image/svg+xml</dc:format>
        <dc:type
           rdf:resource="http://purl.org/dc/dcmitype/StillImage" />
        <dc:title></dc:title>
      </cc:Work>
    </rdf:RDF>
  </metadata>
  <g
     inkscape:label="Layer 1"
     inkscape:groupmode="layer"
     id="layer1"
     transform="translate(-7.097167,-637.35414)">
    <path
       style="fill:#333333;fill-opacity:1;stroke:#000000;stroke-width:2;stroke-miterlimit:4;stroke-dasharray:none"
       d="m 13.030274,652.61322 233.933286,21.25506 233.93329,-21.25506 c 2.72173,-0.24729 4.93311,2.20017 4.93311,4.93311 l 0,292.76537 c 0,2.73295 -2.21632,4.63643 -4.93311,4.93311 l -207.41566,22.65061 c -11.23532,5.36719 -33.35223,6.15199 -47.51965,-0.13037 L 13.030274,955.24481 c -2.717783,-0.28744 -4.933107,-2.20016 -4.933107,-4.93311 l 0,-292.76537 c 0,-2.73294 2.200166,-4.93311 4.933107,-4.93311 z"
       id="rect2987"
       inkscape:connector-curvature="0"
       sodipodi:nodetypes="scssssccssss" />
    <path
       sodipodi:nodetypes="scccsssscssss"
       inkscape:connector-curvature="0"
       id="path3758"
       d="m 21.951459,648.51606 21.554432,-9.94813 198.903009,56.2339 208.96012,-55.52352 20.60665,9.23775 c 2.39951,1.07567 4.74498,2.20017 4.74498,4.93311 l 0,292.76537 c 0,2.73295 -2.12792,4.68594 -4.74498,4.93311 -73.12026,6.90602 -172.74668,3.91415 -223.25801,21.25506 C 194.38895,954.7268 99.427163,958.14033 21.951459,951.14765 c -2.618893,-0.23637 -4.74498,-2.20016 -4.74498,-4.93311 l 0,-292.76537 c 0,-2.73294 2.116261,-4.93311 4.74498,-4.93311 z"
       style="fill:#b3b3b3;fill-opacity:1;stroke:#000000;stroke-width:2;stroke-miterlimit:4;stroke-dasharray:none" />
    <path
       style="fill:#b3b3b3;fill-opacity:1;stroke:#000000;stroke-width:2;stroke-miterlimit:4;stroke-dasharray:none"
       d="m 44.724639,638.36867 c 76.259781,1.57383 191.299791,0.0633 204.227931,22.68984 25.38483,-32.22319 130.56223,-16.02599 200.24992,-22.68984 2.35519,-0.22521 4.26475,2.20051 4.26475,4.93389 l 0,292.81226 c 0,2.73339 -1.92357,4.61608 -4.26475,4.93391 -65.64347,8.91155 -153.8615,-3.9678 -200.24992,27.69972 -49.26712,-27.17774 -134.77325,-18.46648 -204.227931,-27.69972 -2.345121,-0.31176 -4.264747,-2.20052 -4.264747,-4.93391 l 0,-292.81226 c 0,-2.73338 1.90258,-4.98264 4.264747,-4.93389 z"
       id="path3760"
       inkscape:connector-curvature="0"
       sodipodi:nodetypes="scsssscssss" />
    <path
       style="fill:none;stroke:#000000;stroke-width:2;stroke-linecap:butt;stroke-linejoin:miter;stroke-miterlimit:4;stroke-opacity:1;stroke-dasharray:none"
       d="m 248.7147,968.578 0.22948,-307.61478"
       id="path3762"
       inkscape:connector-curvature="0"
       sodipodi:nodetypes="cc" />
    <path
       style="fill:none;stroke:#000000;stroke-width:1px;stroke-linecap:butt;stroke-linejoin:miter;stroke-opacity:1"
       d="m 56.680162,673.81967 c 79.411708,-2.51645 131.758108,3.98886 179.149798,12.14575"
       id="path3764"
       inkscape:connector-curvature="0"
       sodipodi:nodetypes="cc" />
    <path
       sodipodi:nodetypes="cc"
       inkscape:connector-curvature="0"
       id="path3766"
       d="M 56.680162,702.15975 C 136.09187,699.6433 188.43827,706.14861 235.82996,714.3055"
       style="fill:none;stroke:#000000;stroke-width:1px;stroke-linecap:butt;stroke-linejoin:miter;stroke-opacity:1" />
    <path
       sodipodi:nodetypes="cc"
       inkscape:connector-curvature="0"
       id="path3768"
       d="m 56.680162,730.49983 c 79.411708,-2.51645 131.758108,3.98886 179.149798,12.14575"
       style="fill:none;stroke:#000000;stroke-width:1px;stroke-linecap:butt;stroke-linejoin:miter;stroke-opacity:1" />
    <path
       style="fill:none;stroke:#000000;stroke-width:1px;stroke-linecap:butt;stroke-linejoin:miter;stroke-opacity:1"
       d="m 56.680162,758.83991 c 79.411708,-2.51645 131.758108,3.98886 179.149798,12.14575"
       id="path3770"
       inkscape:connector-curvature="0"
       sodipodi:nodetypes="cc" />
    <path
       sodipodi:nodetypes="cc"
       inkscape:connector-curvature="0"
       id="path3772"
       d="m 56.680162,789.20429 c 79.411708,-2.51645 131.758108,3.98886 179.149798,12.14575"
       style="fill:none;stroke:#000000;stroke-width:1px;stroke-linecap:butt;stroke-linejoin:miter;stroke-opacity:1" />
    <path
       style="fill:none;stroke:#000000;stroke-width:1px;stroke-linecap:butt;stroke-linejoin:miter;stroke-opacity:1"
       d="m 56.680162,817.54437 c 79.411708,-2.51645 131.758108,3.98886 179.149798,12.14575"
       id="path3774"
       inkscape:connector-curvature="0"
       sodipodi:nodetypes="cc" />
    <path
       style="fill:none;stroke:#000000;stroke-width:1px;stroke-linecap:butt;stroke-linejoin:miter;stroke-opacity:1"
       d="M 56.680162,845.88445 C 136.09187,843.368 188.43827,849.87331 235.82996,858.0302"
       id="path3776"
       inkscape:connector-curvature="0"
       sodipodi:nodetypes="cc" />
    <path
       sodipodi:nodetypes="cc"
       inkscape:connector-curvature="0"
       id="path3778"
       d="m 56.680162,874.22453 c 79.411708,-2.51645 131.758108,3.98886 179.149798,12.14575"
       style="fill:none;stroke:#000000;stroke-width:1px;stroke-linecap:butt;stroke-linejoin:miter;stroke-opacity:1" />
    <path
       style="fill:none;stroke:#000000;stroke-width:1px;stroke-linecap:butt;stroke-linejoin:miter;stroke-opacity:1"
       d="m 56.680162,908.63749 c 79.411708,-2.51645 131.758108,3.98886 179.149798,12.14575"
       id="path3780"
       inkscape:connector-curvature="0"
       sodipodi:nodetypes="cc" />
    <path
       sodipodi:nodetypes="cc"
       inkscape:connector-curvature="0"
       id="path3782"
       d="m 441.29554,673.81967 c -79.4117,-2.51645 -131.7581,3.98886 -179.14979,12.14575"
       style="fill:none;stroke:#000000;stroke-width:1px;stroke-linecap:butt;stroke-linejoin:miter;stroke-opacity:1" />
    <path
       style="fill:none;stroke:#000000;stroke-width:1px;stroke-linecap:butt;stroke-linejoin:miter;stroke-opacity:1"
       d="m 441.29554,702.15975 c -79.4117,-2.51645 -131.7581,3.98886 -179.14979,12.14575"
       id="path3784"
       inkscape:connector-curvature="0"
       sodipodi:nodetypes="cc" />
    <path
       style="fill:none;stroke:#000000;stroke-width:1px;stroke-linecap:butt;stroke-linejoin:miter;stroke-opacity:1"
       d="m 441.29554,730.49983 c -79.4117,-2.51645 -131.7581,3.98886 -179.14979,12.14575"
       id="path3786"
       inkscape:connector-curvature="0"
       sodipodi:nodetypes="cc" />
    <path
       sodipodi:nodetypes="cc"
       inkscape:connector-curvature="0"
       id="path3788"
       d="m 441.29554,758.83991 c -79.4117,-2.51645 -131.7581,3.98886 -179.14979,12.14575"
       style="fill:none;stroke:#000000;stroke-width:1px;stroke-linecap:butt;stroke-linejoin:miter;stroke-opacity:1" />
    <path
       style="fill:none;stroke:#000000;stroke-width:1px;stroke-linecap:butt;stroke-linejoin:miter;stroke-opacity:1"
       d="m 441.29554,789.20429 c -79.4117,-2.51645 -131.7581,3.98886 -179.14979,12.14575"
       id="path3790"
       inkscape:connector-curvature="0"
       sodipodi:nodetypes="cc" />
    <path
       sodipodi:nodetypes="cc"
       inkscape:connector-curvature="0"
       id="path3792"
       d="m 441.29554,817.54437 c -79.4117,-2.51645 -131.7581,3.98886 -179.14979,12.14575"
       style="fill:none;stroke:#000000;stroke-width:1px;stroke-linecap:butt;stroke-linejoin:miter;stroke-opacity:1" />
    <path
       sodipodi:nodetypes="cc"
       inkscape:connector-curvature="0"
       id="path3794"
       d="m 441.29554,845.88445 c -79.4117,-2.51645 -131.7581,3.98886 -179.14979,12.14575"
       style="fill:none;stroke:#000000;stroke-width:1px;stroke-linecap:butt;stroke-linejoin:miter;stroke-opacity:1" />
    <path
       style="fill:none;stroke:#000000;stroke-width:1px;stroke-linecap:butt;stroke-linejoin:miter;stroke-opacity:1"
       d="m 441.29554,874.22453 c -79.4117,-2.51645 -131.7581,3.98886 -179.14979,12.14575"
       id="path3796"
       inkscape:connector-curvature="0"
       sodipodi:nodetypes="cc" />
    <path
       sodipodi:nodetypes="cc"
       inkscape:connector-curvature="0"
       id="path3798"
       d="m 441.29554,908.63749 c -79.4117,-2.51645 -131.7581,3.98886 -179.14979,12.14575"
       style="fill:none;stroke:#000000;stroke-width:1px;stroke-linecap:butt;stroke-linejoin:miter;stroke-opacity:1" />
  </g>
</svg>
